<?xml version="1.0" standalone="no"?>
<!DOCTYPE svg PUBLIC "-//W3C//DTD SVG 20010904//EN"
 "http://www.w3.org/TR/2001/REC-SVG-20010904/DTD/svg10.dtd">
<svg version="1.0" xmlns="http://www.w3.org/2000/svg"
 width="266.000000pt" height="150.000000pt" viewBox="0 0 266.000000 150.000000"
 preserveAspectRatio="xMidYMid meet">

<g transform="translate(0.000000,150.000000) scale(0.100000,-0.100000)"
fill="#000000" stroke="none">
<path d="M503 1226 l-28 -24 -3 -424 c-2 -232 0 -438 3 -456 3 -18 15 -42 26
-53 19 -19 41 -19 972 -19 936 0 954 0 974 20 13 11 24 38 28 62 3 24 4 225 2
448 -3 365 -5 408 -21 431 -9 15 -27 30 -39 33 -12 3 -441 6 -954 6 l-932 0
-28 -24z m1935 -18 c7 -7 12 -36 12 -65 l0 -53 -975 0 -975 0 0 53 c0 29 5 58
12 65 17 17 1909 17 1926 0z m2 -155 c0 -10 3 -180 7 -379 l6 -361 -24 -16
c-21 -16 -105 -17 -961 -17 -925 0 -938 0 -958 20 -19 19 -20 33 -20 395 l0
375 975 0 c922 0 975 -1 975 -17z"/>
<path d="M554 1165 c-4 -9 -2 -21 4 -27 15 -15 44 -1 40 19 -4 23 -36 29 -44
8z"/>
<path d="M654 1165 c-4 -9 -2 -21 4 -27 15 -15 44 -1 40 19 -4 23 -36 29 -44
8z"/>
<path d="M752 1158 c4 -30 43 -33 43 -3 0 13 -8 21 -23 23 -20 3 -23 0 -20
-20z"/>
<path d="M1347 893 c-3 -5 -8 -35 -11 -68 -4 -33 -10 -80 -13 -104 l-5 -43 49
5 c26 3 63 9 81 12 37 8 72 -14 72 -47 0 -26 -36 -58 -65 -58 -14 0 -30 9 -37
20 -10 16 -24 20 -65 20 l-52 0 10 -32 c11 -41 39 -64 92 -79 87 -23 184 17
201 82 15 61 0 106 -44 135 -34 23 -48 26 -95 22 -47 -4 -55 -2 -55 13 0 45 9
49 96 49 l84 0 0 40 0 40 -119 0 c-66 0 -122 -3 -124 -7z"/>
<path d="M1068 848 c-127 -160 -138 -177 -138 -218 l0 -40 90 0 90 0 0 -35 c0
-35 0 -35 45 -35 45 0 45 0 45 35 0 32 2 35 30 35 28 0 30 3 30 34 0 30 -3 35
-27 38 l-28 3 -3 113 -3 112 -49 0 c-45 0 -51 -3 -82 -42z m38 -174 c-6 -15
-86 -20 -86 -6 0 5 19 35 43 68 l42 59 3 -54 c2 -29 1 -60 -2 -67z"/>
<path d="M710 765 l0 -55 -55 0 c-54 0 -55 0 -55 -30 0 -30 1 -30 55 -30 l54
0 3 -57 c3 -55 5 -58 30 -61 26 -3 27 -2 30 55 l3 58 53 3 c50 3 52 4 52 33 0
29 -1 29 -55 29 l-55 0 0 55 c0 54 0 55 -30 55 -30 0 -30 -1 -30 -55z"/>
<path d="M2098 795 c-3 -3 19 -63 49 -133 l54 -127 -22 -53 c-16 -39 -19 -56
-10 -65 6 -6 13 -9 15 -6 13 12 164 373 160 381 -14 23 -17 19 -107 -181 l-19
-44 -13 34 c-7 19 -28 70 -47 113 -31 74 -46 94 -60 81z"/>
<path d="M1803 693 c8 -142 24 -174 95 -178 38 -3 82 12 82 27 0 4 5 8 10 8 6
0 10 -7 10 -15 0 -8 7 -15 15 -15 13 0 15 22 15 135 0 113 -2 135 -15 135 -12
0 -15 -18 -15 -99 0 -84 -3 -102 -21 -125 -26 -32 -84 -36 -120 -7 -22 18 -24
28 -27 125 -3 86 -7 106 -19 106 -12 0 -14 -16 -10 -97z"/>
<path d="M1680 540 c0 -13 7 -20 20 -20 13 0 20 7 20 20 0 13 -7 20 -20 20
-13 0 -20 -7 -20 -20z"/>
</g>
</svg>
